<?xml version="1.0" encoding="UTF-8" standalone="no"?>
<!-- Created with Inkscape (http://www.inkscape.org/) -->

<svg
   xmlns:dc="http://purl.org/dc/elements/1.1/"
   xmlns:cc="http://creativecommons.org/ns#"
   xmlns:rdf="http://www.w3.org/1999/02/22-rdf-syntax-ns#"
   xmlns:svg="http://www.w3.org/2000/svg"
   xmlns="http://www.w3.org/2000/svg"
   xmlns:sodipodi="http://sodipodi.sourceforge.net/DTD/sodipodi-0.dtd"
   xmlns:inkscape="http://www.inkscape.org/namespaces/inkscape"
   width="900"
   height="290"
   id="svg2"
   version="1.1"
   inkscape:version="0.48.3.1 r9886"
   sodipodi:docname="logo.svg">
  <defs
     id="defs4" />
  <sodipodi:namedview
     id="base"
     pagecolor="#ffffff"
     bordercolor="#666666"
     borderopacity="1.0"
     inkscape:pageopacity="0.0"
     inkscape:pageshadow="2"
     inkscape:zoom="0.98994949"
     inkscape:cx="514.57777"
     inkscape:cy="136.70527"
     inkscape:document-units="px"
     inkscape:current-layer="layer1"
     showgrid="false"
     inkscape:window-width="1366"
     inkscape:window-height="744"
     inkscape:window-x="0"
     inkscape:window-y="24"
     inkscape:window-maximized="1" />
  <metadata
     id="metadata7">
    <rdf:RDF>
      <cc:Work
         rdf:about="">
        <dc:format>image/svg+xml</dc:format>
        <dc:type
           rdf:resource="http://purl.org/dc/dcmitype/StillImage" />
        <dc:title></dc:title>
      </cc:Work>
    </rdf:RDF>
  </metadata>
  <g
     inkscape:label="Layer 1"
     inkscape:groupmode="layer"
     id="layer1"
     transform="translate(0,-762.362)">
    <g
       id="g3754"
       transform="translate(-10,-32)">
      <path
         style="fill:#6e5a59;fill-opacity:0.95890407"
         d="M 80.27858,990.11014 C 69.083104,986.66369 57.09676,981.92239 49.530093,977.94733 l -2.800202,-1.47108 8.178904,0.58826 c 14.864429,1.06914 32.461337,0.88353 51.279815,-0.54086 11.74281,-0.88882 21.32289,-2.00923 35.93953,-4.20317 21.21523,-3.18439 33.93658,-4.4125 50.38559,-4.8642 19.59704,-0.53814 31.96129,0.42134 45.66882,3.54395 7.49536,1.70747 8.45254,2.01117 10.42418,3.30752 4.92173,3.236 5.27233,12.20236 0.64176,16.41271 -1.72927,1.57235 -5.38902,2.56467 -19.62138,5.32024 -19.38158,3.75251 -39.20038,5.9226 -58.15233,6.3675 -22.77389,0.5346 -41.44733,-0.9299 -61.44474,-4.81874 -11.282915,-2.19417 -18.373609,-3.97669 -29.751449,-7.47932 z m 195.22483,-1.39121 c 2.53011,-5.40637 2.66981,-9.35478 0.44335,-12.5309 -0.7985,-1.1391 -0.99099,-2.24185 -0.42774,-2.45056 2.26284,-0.8385 32.14681,-3.78311 44.34424,-4.36944 48.06534,-2.31052 200.57246,-2.30383 313.83996,0.0138 39.24842,0.80307 62.47102,1.81201 62.76407,2.72686 0.34985,1.09207 -34.11273,3.9375 -94.39921,7.79421 -116.68707,7.46472 -245.72752,13.23925 -283.12542,12.66979 -6.609,-0.10062 -41.44162,-2.30743 -43.14138,-2.73318 -0.40479,-0.10138 -0.53884,-0.60563 -0.29787,-1.1205 z"
         id="path3828"
         inkscape:connector-curvature="0" />
      <path
         style="fill:#da4f76;fill-opacity:1;stroke:none"
         d="m 715.23148,1078.163 c 0.43392,-0.5113 0.22331,-1.1616 -0.80218,-2.4764 -0.76483,-0.9808 -2.2386,-3.7241 -3.27505,-6.0963 -4.61079,-10.5534 -5.90946,-17.1912 -5.91214,-30.2187 -10e-4,-6.5247 0.18084,-8.1065 1.33649,-11.6044 0.73592,-2.2274 1.88324,-5.7959 2.54959,-7.93 0.66636,-2.1341 1.56538,-4.013 1.99784,-4.1752 0.49392,-0.1854 2.7265,1.6305 6.00423,4.8833 l 5.21796,5.1786 0.0111,4.1242 c 0.006,2.2684 0.26497,5.7031 0.57525,7.6325 0.31028,1.9296 0.79357,5.0871 1.07399,7.0166 0.28041,1.9296 1.38439,5.4513 2.45323,7.8262 1.0689,2.3748 1.94647,4.9179 1.95017,5.6512 0.005,0.7333 -1.25317,3.3427 -2.79302,5.7985 -3.25061,5.1841 -5.04251,9.7181 -5.13609,12.9956 l -0.0662,2.3159 -2.88682,-0.1141 c -2.28055,-0.09 -2.76324,-0.2597 -2.29841,-0.8075 z m 22.38056,-14.9099 c -1.75276,-2.7138 -5.09229,-11.7131 -6.45941,-17.4066 -0.35638,-1.4842 -1.39841,-5.2273 -2.3156,-8.318 -1.88416,-6.349 -1.9059,-9.7938 -0.11743,-18.5741 0.79628,-3.9092 1.27512,-5.0613 2.67111,-6.4266 3.5069,-3.4299 7.1122,-4.6169 8.62121,-2.8386 0.38017,0.448 0.87105,2.3304 1.0908,4.183 0.21981,1.8526 0.69065,4.4613 1.04644,5.7972 0.71068,2.6688 2.59126,9.8803 3.42583,13.1373 0.29216,1.14 1.12448,3.4514 1.84962,5.1365 1.61728,3.758 1.38798,5.4132 -1.87986,13.5706 -1.31287,3.2773 -2.48999,7.3333 -2.79131,9.6182 -0.60235,4.5677 -0.77674,4.9547 -2.23326,4.9547 -0.70015,0 -1.71948,-0.9932 -2.90814,-2.8336 z m 32.77253,-8.5606 c -1.64608,-0.6406 -7.35877,-5.845 -9.81504,-8.942 -3.24815,-4.0955 -7.89547,-12.4269 -9.32881,-16.7242 -0.77591,-2.3262 -2.16754,-5.8081 -3.09246,-7.7377 -1.52809,-3.1877 -1.68692,-4.0359 -1.73797,-9.2823 -0.0353,-3.6392 0.17411,-5.9996 0.56676,-6.3844 0.46323,-0.4539 2.49413,0.1871 7.9214,2.5003 6.05671,2.5814 7.52748,3.4381 8.6446,5.0351 0.74039,1.0584 2.22659,3.1387 3.30272,4.623 1.07613,1.4843 2.33548,3.5488 2.79853,4.5878 0.46307,1.0389 1.2678,2.4962 1.78826,3.2384 0.52039,0.7421 1.6559,3.0099 2.52332,5.0393 l 1.57711,3.69 -0.6554,6.2951 c -0.87138,8.3701 -1.93322,14.2766 -2.59743,14.4487 -0.29729,0.077 -1.1503,-0.097 -1.89559,-0.3871 z m 15.61874,-27.8716 c -2.15424,-1.7069 -4.87899,-3.8098 -6.05501,-4.673 -1.80827,-1.3272 -5.57896,-5.4281 -6.93825,-7.5457 -3.90634,-6.0856 -6.2582,-10.942 -7.42467,-15.33135 -1.76667,-6.64799 -1.59709,-7.11756 2.45302,-6.79217 7.84976,0.63069 7.75148,0.59477 11.36522,4.16124 1.8553,1.83097 4.61493,4.87118 6.13255,6.75608 1.5176,1.8848 3.57097,4.2916 4.56299,5.3484 2.73474,2.9134 3.61893,6.6376 3.32976,14.0258 -0.33277,8.5035 -1.20515,8.9794 -7.42561,4.0507 z m -67.48334,-22.0955 c -1.65025,-0.4282 -3.6647,-1.2411 -4.47656,-1.8066 -1.93622,-1.3484 -4.93984,-4.10202 -4.93984,-4.52857 0,-0.18496 -0.80709,-1.48458 -1.79354,-2.8881 -2.38918,-3.39916 -5.15502,-8.61743 -4.7681,-8.99585 0.17054,-0.16683 1.70721,0.16684 3.41479,0.74144 1.7076,0.5746 4.29379,1.21554 5.74711,1.42431 4.30821,0.61886 5.15723,1.13129 10.64439,6.42436 2.88345,2.78146 6.09517,5.51311 7.13708,6.07051 1.04197,0.5574 1.98906,1.2909 2.10468,1.6302 0.65875,1.9328 -8.08241,3.2225 -13.07001,1.9283 z m 82.7442,-0.6738 c -4.05358,-0.5892 -10.51807,-3.9472 -15.17615,-7.88337 -7.74458,-6.54443 -10.0455,-9.08313 -11.04442,-12.18559 -1.47016,-4.56583 -0.99336,-5.57541 3.66478,-7.75869 2.93629,-1.37628 4.19055,-1.71011 5.08661,-1.35388 10.65034,4.23369 19.12476,9.51316 19.12476,11.91445 0,1.30589 1.4717,5.94396 3.62738,11.4316 1.0206,2.59808 1.71291,5.08758 1.53847,5.53228 -0.33862,0.8631 -2.35324,0.9526 -6.82143,0.3032 z m -64.6936,-7.77684 c -4.57575,-1.52517 -8.91667,-4.39572 -12.7124,-8.40628 -3.05233,-3.22515 -5.88478,-7.81884 -5.22122,-8.46787 0.21701,-0.21222 1.57541,0.22572 3.01867,0.9732 1.44326,0.74748 4.23701,1.7875 6.20837,2.3112 1.97135,0.52366 4.66808,1.71226 5.99265,2.64126 6.42006,4.50274 7.77598,5.29783 11.24751,6.59529 3.84375,1.43649 4.255,1.82468 3.00631,2.83818 -0.49237,0.39965 -7.8268,2.9857 -7.8268,2.75965 0,0 -1.67087,-0.56392 -3.71309,-1.24463 z m -35.43348,-10.76693 c 0.20724,-0.53228 0.51582,-0.83184 0.68573,-0.66566 0.1699,0.16619 3.5e-4,0.6017 -0.3768,0.9678 -0.54503,0.52911 -0.60842,0.46709 -0.30893,-0.30214 z m 47.14853,-3.26222 c -8.70151,-3.2749 -13.31555,-5.47557 -15.6311,-7.45536 -1.2674,-1.08363 -2.13161,-2.14313 -1.92053,-2.35445 0.21108,-0.2113 1.96981,-0.11409 3.90822,0.21606 4.89527,0.83378 6.76558,0.74927 10.80072,-0.48781 l 3.5037,-1.07413 2.56676,1.14338 c 4.68563,2.08721 12.32326,4.25727 14.98366,4.25727 3.32165,0 4.3662,1.00008 2.61438,2.50308 -3.10095,2.66046 -5.77229,3.90148 -9.61836,4.46831 -5.5228,0.81393 -5.93057,0.76966 -11.20745,-1.21635 z m 53.76092,-3.82548 c -7.67019,-1.70324 -15.54594,-7.09191 -16.73769,-11.45207 -0.83397,-3.05117 -0.40981,-3.77577 2.43315,-4.15688 1.32988,-0.17827 4.94864,-1.05944 8.04182,-1.95816 6.70388,-1.94779 8.75696,-2.02541 11.64092,-0.44016 2.24072,1.23168 3.70508,3.14035 5.81666,7.58173 0.67172,1.41276 1.97666,3.64246 2.89992,4.95488 3.17562,4.51419 2.55483,4.97782 -7.9789,5.95901 -1.51762,0.14136 -4.26974,-0.0784 -6.11588,-0.48835 z m -41.73027,-9.26247 c -6.81259,-1.04072 -14.2424,-3.65433 -14.23659,-5.00814 0,-0.18854 1.67703,-0.37162 3.72504,-0.4068 3.16685,-0.0545 4.45108,-0.40545 8.58937,-2.34715 4.15109,-1.9477 5.20487,-2.23467 7.17418,-1.95374 1.26961,0.18114 5.45922,0.47621 9.31021,0.65577 7.91897,0.36919 8.52855,0.73027 6.22316,3.68635 -2.93656,3.76552 -8.61288,6.31026 -13.75914,6.16848 -1.22386,-0.0335 -4.38563,-0.39137 -7.02623,-0.79477 z m 53.64067,-11.67086 c -5.34537,-0.57914 -8.62805,-2.04225 -11.8721,-5.29146 -3.01889,-3.02377 -2.40761,-3.36984 5.16695,-2.92537 5.15901,0.30273 6.94753,0.6317 9.0526,1.66497 2.95129,1.44866 6.44479,4.83016 6.46741,6.26007 0.0171,1.08391 -1.14825,1.12249 -8.81486,0.29179 z m -44.42472,-1.8011 c -8.00406,-1.38783 -13.12488,-4.02297 -7.81776,-4.02297 1.36597,0 3.68378,-0.50385 5.15068,-1.11969 4.55406,-1.9118 7.21778,-2.16645 10.37689,-0.99208 2.05193,0.76274 4.19591,1.03181 8.22349,1.03202 l 5.44796,2.7e-4 -0.81719,1.21441 c -0.44943,0.66792 -2.52851,1.90931 -4.62017,2.75875 -4.61714,1.87493 -9.60573,2.22824 -15.9439,1.12929 z m 6.48436,-10.48329 c -0.68293,-0.28682 -1.24169,-0.75585 -1.24169,-1.04223 0,-0.28644 0.55876,-0.6846 1.24169,-0.88479 0.68292,-0.20019 2.3592,-1.04288 3.72505,-1.87256 1.52027,-0.92343 3.66054,-1.64528 5.5186,-1.86112 5.44531,-0.63262 10.1311,-1.90025 14.47391,-3.91557 2.34545,-1.08842 4.4125,-1.83413 4.59352,-1.65715 0.5486,0.53661 -1.17989,3.2877 -3.18656,5.0718 -1.03993,0.92462 -4.05727,2.73106 -6.70515,4.01428 -4.69472,2.27525 -4.96795,2.33738 -10.99603,2.50103 -3.3999,0.0922 -6.74042,-0.0669 -7.42334,-0.35369 z m 49.14577,-0.68951 c -1.04522,-0.32347 -3.724,-2.5053 -6.57801,-5.3578 -4.07487,-4.07274 -4.69428,-4.91975 -4.03122,-5.51275 1.2344,-1.10387 11.21832,-1.9114 25.61717,-2.07201 l 13.24462,-0.14772 0,1.61312 c 0,1.45728 -0.45309,1.86819 -4.69081,4.25446 -9.90604,5.57812 -19.43616,8.4995 -23.56175,7.2227 z m -120.13693,-0.79682 c -0.82895,-0.81074 -0.093,-2.20363 3.32505,-6.29316 2.46145,-2.94496 4.64965,-6.41573 6.67545,-10.58806 4.3511,-8.9615 5.56482,-11.14661 8.22548,-14.80865 4.97141,-6.84245 14.44376,-14.76502 20.75571,-17.35988 1.8979,-0.78022 4.07156,-1.83763 4.83037,-2.3498 1.56104,-1.05366 9.21838,-4.96665 12.14092,-6.20419 2.82855,-1.19773 11.72194,-5.86305 16.03373,-8.41106 2.05778,-1.216 5.06558,-2.70299 6.68397,-3.30444 1.61843,-0.60144 3.56374,-1.42352 4.32282,-1.82686 0.75914,-0.40333 4.26666,-1.95743 7.79441,-3.45355 7.06685,-2.99703 20.823,-10.16243 26.42151,-13.7626 1.97291,-1.26871 7.64106,-4.95282 12.59581,-8.18691 4.95482,-3.2341 9.57985,-6.24451 10.2779,-6.68979 2.71293,-1.73063 6.80513,-4.64316 10.23786,-7.28658 1.97291,-1.51925 4.26776,-3.17711 5.09963,-3.68414 2.21952,-1.35274 11.80958,-8.70515 15.31919,-11.7448 5.5569,-4.81273 12.88443,-10.677 15.53264,-12.4308 8.75675,-5.79933 12.89035,-7.70447 13.76996,-6.34636 0.2645,0.40844 0.48476,0.96083 0.48939,1.22751 0.0103,0.55605 -16.21458,16.88448 -18.00978,18.12543 -1.70901,1.18131 -11.56743,9.21235 -14.85199,12.0989 -1.5366,1.35042 -3.89579,3.21663 -5.24266,4.14713 -1.34687,0.9305 -3.19384,2.40388 -4.10441,3.27418 -2.06423,1.97294 -8.11466,6.06624 -21.24658,14.37402 -5.61518,3.55238 -11.30557,7.15776 -12.64537,8.01198 -14.27431,9.10085 -26.44921,16.42854 -31.77935,19.12699 -3.03523,1.53664 -6.22035,3.28056 -7.07804,3.87539 -0.85765,0.59481 -5.77511,2.97949 -10.92766,5.29926 -5.15249,2.31977 -11.03168,5.12582 -13.06484,6.23567 -2.03317,1.10984 -5.06249,2.74106 -6.73186,3.62492 -1.66938,0.88386 -3.44968,1.9541 -3.95629,2.37831 -0.50655,0.42422 -2.36908,1.48278 -4.13895,2.35237 -9.41257,4.62475 -17.6344,11.72644 -20.58978,17.78475 -0.93501,1.91663 -2.00303,3.97135 -2.37344,4.56602 -5.38574,8.64655 -6.5646,9.9227 -12.68917,13.73615 -3.82766,2.38326 -10.49825,5.08275 -11.10163,4.49265 z m 75.03126,-9.26299 c -0.24485,-0.38748 0.17164,-0.60354 1.17,-0.60694 2.93204,-0.0102 7.14973,-2.42545 9.26623,-5.30679 1.64907,-2.24494 2.829,-3.09905 7.17793,-5.19587 3.57793,-1.72512 6.27785,-3.51142 8.63932,-5.71593 1.88923,-1.76364 3.63757,-3.20663 3.88531,-3.20663 1.00852,0 0.35016,3.18156 -1.13115,5.46606 -2.78049,4.28798 -10.36094,9.52194 -18.28549,12.62526 -5.50083,2.15419 -10.0652,2.98037 -10.72215,1.94084 z m 43.55781,-10.70178 c -3.0557,-0.71886 -2.2113,-2.21677 1.81545,-3.22036 4.81085,-1.199 8.33325,-2.25343 10.16284,-3.0422 3.94988,-1.70287 13.09848,-4.71404 17.54619,-5.77515 2.57995,-0.61552 5.8927,-1.49934 7.3617,-1.96405 3.88433,-1.22878 4.35954,-0.34816 1.46784,2.72002 -2.44623,2.59553 -7.77626,6.16866 -12.41662,8.32383 -5.1096,2.3731 -20.81155,4.16376 -25.9374,2.95791 z m -40.00984,-2.04394 c 0,-0.44529 0.28746,-0.80961 0.63883,-0.80961 1.21763,0 6.47111,-4.40644 8.70763,-7.30361 1.73041,-2.24153 2.75588,-3.04494 4.45925,-3.49353 2.21998,-0.58464 6.51708,-3.6379 10.88776,-7.73611 2.77872,-2.60556 3.74006,-2.26439 2.84037,1.00809 -2.05601,7.47859 -10.47115,13.9838 -23.11896,17.87187 -4.90388,1.5075 -4.41488,1.45623 -4.41488,0.4629 z m -1.65558,-11.5022 c 0,-0.30993 0.68292,-1.0509 1.51762,-1.64661 0.83469,-0.5957 2.13845,-1.57459 2.89726,-2.17528 0.75881,-0.60071 2.14243,-1.69478 3.07474,-2.43129 2.38978,-1.88796 4.84991,-5.51787 4.44287,-6.55541 -0.41628,-1.06092 -1.5711,-0.77543 -6.24165,1.54304 -1.87815,0.93233 -3.60106,1.51304 -3.82859,1.29048 -0.22758,-0.22257 0.58222,-1.43182 1.79956,-2.68723 1.2173,-1.2554 2.62995,-2.94221 3.1392,-3.74844 0.50921,-0.80625 3.03159,-2.82215 5.60524,-4.4798 3.15643,-2.033 5.50166,-4.0591 7.20603,-6.22535 1.55061,-1.97088 2.94053,-3.21144 3.59812,-3.21144 0.58927,0 1.07144,0.075 1.07144,0.16656 0,0.5418 -3.41194,9.18139 -3.97273,10.05965 -1.15312,1.8059 -0.0802,1.8276 2.55892,0.0517 3.91472,-2.63421 4.25616,-1.87734 2.28519,5.06501 -0.95383,3.35963 -3.46309,6.63312 -6.75962,8.81827 -1.92102,1.27335 -9.22069,4.14087 -13.64556,5.36035 -1.54907,0.42693 -3.25112,0.90966 -3.78229,1.07274 -0.53116,0.16308 -0.96575,0.0429 -0.96575,-0.267 z m 45.56944,-3.81543 c -0.63558,-1.00578 1.62463,-2.05751 16.84845,-7.83998 3.52229,-1.33786 8.24068,-2.91667 10.48532,-3.50846 5.77361,-1.52219 10.31354,-2.98545 13.19116,-4.25161 3.77677,-1.66181 11.57869,-4.43502 12.47706,-4.43502 2.10053,0 1.33671,2.74832 -1.61017,5.79368 -2.35522,2.43391 -13.54948,7.58473 -23.28798,10.7155 -2.42819,0.78062 -4.65081,1.63583 -4.93915,1.90045 -0.28835,0.26462 -1.04578,0.48113 -1.68318,0.48113 -0.63739,0 -1.39482,0.21468 -1.68317,0.47708 -0.79242,0.72112 -19.36871,1.34715 -19.79834,0.66723 z m 7.19549,-11.84041 c -0.15331,-0.2426 3.20663,-2.59905 7.46649,-5.23653 4.2599,-2.63747 8.77864,-5.67548 10.04168,-6.75111 1.26304,-1.07563 3.8804,-3.03034 5.81627,-4.34379 4.4731,-3.03486 4.03465,-2.76274 8.89703,-5.52152 2.27642,-1.29159 7.73983,-4.44553 12.14092,-7.00878 11.81267,-6.87982 13.67138,-7.42604 11.94341,-3.50986 -2.77845,6.29709 -20.01762,21.03726 -27.93791,23.88799 -1.06752,0.38424 -4.39407,1.69573 -7.39238,2.91444 -5.22865,2.12528 -18.05253,6.01027 -19.83918,6.01027 -0.47167,0 -0.98297,-0.1985 -1.13633,-0.44111 z m -8.33254,-7.10309 c -0.18338,-0.2902 4.33409,-3.57668 10.03883,-7.30329 5.7048,-3.7266 12.97983,-8.58449 16.16682,-10.79533 3.18699,-2.21082 6.53955,-4.42169 7.45011,-4.91301 0.91058,-0.49134 2.69379,-1.77163 3.96269,-2.84511 1.26889,-1.07346 3.85121,-3.16616 5.73845,-4.65043 10.62596,-8.35694 20.8096,-17.93268 26.17615,-24.61358 1.44643,-1.80069 4.01518,-2.49084 4.51638,-1.21342 0.8338,2.1251 -6.91283,13.84457 -12.75382,19.29462 -4.60693,4.29856 -14.03203,11.47456 -21.00357,15.99142 -26.58627,17.22538 -30.63829,19.61557 -35.33297,20.84208 -3.30067,0.86231 -4.51255,0.91266 -4.95907,0.20605 z m 3.57942,-18.35476 c 0,-0.29227 1.61436,-1.52854 3.58753,-2.74732 1.97312,-1.21875 3.77357,-2.49764 4.00098,-2.84197 0.76682,-1.16097 7.68129,-6.61262 12.34194,-9.73092 2.54502,-1.70277 6.39683,-4.47972 8.55963,-6.17103 2.16279,-1.6913 5.88784,-4.60914 8.27789,-6.48408 2.39005,-1.87494 4.56979,-3.87871 4.84379,-4.45282 0.27405,-0.57411 0.84578,-1.04383 1.27049,-1.04383 0.42477,0 2.57029,-1.63945 4.76785,-3.64322 3.68891,-3.36361 10.7521,-9.6573 16.87571,-15.0372 3.94872,-3.46918 6.11223,-4.10753 6.11223,-1.80343 0,2.76674 -2.14563,6.86873 -8.37093,16.00334 -1.99416,2.92609 -10.04458,9.15638 -20.04985,15.51673 -4.55284,2.89424 -9.34061,5.96696 -10.63942,6.82826 -1.29886,0.8613 -2.49578,1.566 -2.6599,1.566 -0.16407,0 -1.33639,0.69405 -2.60517,1.54231 -1.26878,0.84828 -4.16941,2.58325 -6.44584,3.85551 -2.27641,1.27224 -5.50478,3.08071 -7.17415,4.01882 -3.17949,1.78672 -11.08831,5.15623 -12.10256,5.15623 -0.32461,0 -0.59022,-0.23912 -0.59022,-0.53138 z"
         id="path3048"
         inkscape:connector-curvature="0" />
      <text
         sodipodi:linespacing="125%"
         id="text3007"
         y="966.32025"
         x="14.606296"
         style="font-size:37.6572113px;font-style:normal;font-weight:normal;line-height:125%;letter-spacing:0px;word-spacing:-4.73435068px;fill:#f0efef;fill-opacity:1;stroke:none;font-family:Sans"
         xml:space="preserve"><tspan
           style="font-size:135.56594849px;font-style:normal;font-variant:normal;font-weight:normal;font-stretch:normal;letter-spacing:19.02630615px;word-spacing:-4.73435068px;fill:#f0efef;fill-opacity:1;font-family:Alex Brush;-inkscape-font-specification:Alex Brush"
           y="966.32025"
           x="14.606296"
           id="tspan3009"
           sodipodi:role="line">ArtAnzels</tspan></text>
    </g>
  </g>
</svg>
